<svg version="1.1" width="64" height="64" viewBox="0 0 1024 1024"
     xmlns="http://www.w3.org/2000/svg">
    <path d="M512 512m-512 0a512 512 0 1 0 1024 0 512 512 0 1 0-1024 0Z" fill="#5389F5"/>
    <path d="M472 592c15.1 0 29 5.3 40 14.1V512h-94.4c9-11 14.4-25.1 14.4-40.5 0-35.3-28.7-64-64-64s-64 28.7-64 64c0 15.4 5.4 29.5 14.4 40.5H224v256c0 17.7 14.3 32 32 32h256v-94.1c-11 8.8-24.9 14.1-40 14.1-35.3 0-64-28.7-64-64s28.7-64 64-64z"
          fill="#C4D6FC"/>
    <path d="M432 472c0 15.1-5.3 29-14.1 40H512v-94.4c11 9 25.1 14.4 40.5 14.4 35.3 0 64-28.7 64-64s-28.7-64-64-64c-15.4 0-29.5 5.4-40.5 14.4V224H256c-17.7 0-32 14.3-32 32v256h94.1c-8.8-11-14.1-24.9-14.1-40 0-35.3 28.7-64 64-64s64 28.7 64 64z"
          fill="#F1F6FE"/>
    <path d="M592 552c0-15.1 5.3-29 14.1-40H512v94.4c-11-9-25.1-14.4-40.5-14.4-35.3 0-64 28.7-64 64s28.7 64 64 64c15.4 0 29.5-5.4 40.5-14.4V800h256c17.7 0 32-14.3 32-32V512h-94.1c8.8 11 14.1 24.9 14.1 40 0 35.3-28.7 64-64 64s-64-28.7-64-64z"
          fill="#A2BFFA"/>
</svg>
