<svg width="26px" height="26px" viewBox="0 0 26 26" version="1.1" xmlns="http://www.w3.org/2000/svg">
    <g transform="translate(-487.000000, -260.000000)" fill="#FF9900">
        <g transform="translate(487.000000, 260.000000)">
            <path stroke="#FF9900" fill-opacity="0.05"
                  transform="translate(13.000000, 13.000000) rotate(45.000000) translate(-13.000000, -13.000000)"
                  d="M20.1923882,4.30761184 C20.6066017,4.30761184 20.9816017,4.47550506 21.2530483,4.74695167 C21.5244949,5.01839828 21.6923882,5.39339828 21.6923882,5.80761184 L21.6923882,20.1923882 C21.6923882,20.6066017 21.5244949,20.9816017 21.2530483,21.2530483 C20.9816017,21.5244949 20.6066017,21.6923882 20.1923882,21.6923882 L5.80761184,21.6923882 C5.39339828,21.6923882 5.01839828,21.5244949 4.74695167,21.2530483 C4.47550506,20.9816017 4.30761184,20.6066017 4.30761184,20.1923882 L4.30761184,5.80761184 C4.30761184,5.39339828 4.47550506,5.01839828 4.74695167,4.74695167 C5.01839828,4.47550506 5.39339828,4.30761184 5.80761184,4.30761184 Z"/>
            <g transform="translate(6.361053, 6.361053) rotate(45 6.64 6.64)">
                <rect x="0" y="6.12825877" width="13.277894" height="1.02137646" rx="0.510688231"/>
                <path transform="translate(6.638947, 6.638947) scale(1, -1) rotate(90.000000) translate(-6.638947, -6.638947)"
                      d="M0.510688231,6.12825877 L12.7672058,6.12825877 C13.0492511,6.12825877 13.277894,6.35690168 13.277894,6.638947 C13.277894,6.92099232 13.0492511,7.14963523 12.7672058,7.14963523 L0.510688231,7.14963523 C0.228642909,7.14963523 -1.81895486e-12,6.92099232 -1.8189894e-12,6.638947 C-1.81902394e-12,6.35690168 0.228642909,6.12825877 0.510688231,6.12825877 Z"/>
            </g>
        </g>
    </g>
</svg>
