<svg width="2060" height="1460" xmlns="http://www.w3.org/2000/svg">
    <g fill="#2d8cf0">
        <rect height="1400" width="2000" y="30" x="30" ry="300" rx="300" fill-opacity="0.05"
              stroke-width="60" stroke-linecap="round" stroke="#2d8cf0"/>
        <g stroke="#2d8cf0" stroke-linecap="round">
            <path fill="#2d8cf0" stroke-width="39.2105"
                  d="m333.67713,218.81077l264.6292,0c-36.77482,22.93073 -62.45762,44.00981 -79.41408,63.81649c-18.95978,22.14766 -27.11031,42.91928 -27.34708,62.45007c-0.47355,39.06226 29.73061,71.18326 59.76937,101.94676c30.03876,30.76418 59.98487,60.47146 63.30177,92.05508c1.65879,15.79181 -2.88521,32.40238 -17.83768,51.26197c-14.82138,18.6935 -40.01279,39.34776 -78.98034,62.168l-264.46654,0c32.54445,-20.20679 54.69897,-38.89549 68.81072,-56.69405c16.00457,-20.18689 21.60411,-39.49669 19.69687,-57.65625c-3.81515,-36.32048 -35.83733,-66.64337 -65.76147,-97.2902c-29.92415,-30.64614 -57.67889,-61.31835 -57.26162,-95.68425c0.20795,-17.18295 7.21509,-35.78517 25.22847,-56.82651c17.86925,-20.87319 46.61708,-43.95971 89.63244,-69.54712zm-2.44667,-8.81075l-1.03769,0.6163c-44.11619,26.14262 -73.87974,49.86328 -92.84021,72.01094c-18.96047,22.14766 -27.11031,42.91928 -27.34708,62.45007c-0.47355,39.06226 29.72855,71.18326 59.76731,101.94676c30.03945,30.76418 59.98624,60.47146 63.30451,92.05508c1.65811,15.79181 -2.8859,32.40238 -17.83837,51.26197c-14.95247,18.85958 -40.41634,39.70738 -79.97685,62.76851l-14.08498,8.21023l299.03353,0l1.02945,-0.59914c40.13015,-23.3933 66.43748,-44.71945 82.44274,-64.90566c16.00457,-20.18689 21.60342,-39.49669 19.69619,-57.65625c-3.81515,-36.32048 -35.83733,-66.64337 -65.76147,-97.2902c-29.92346,-30.64614 -57.67821,-61.31835 -57.26162,-95.68425c0.20864,-17.18295 7.21509,-35.78517 25.22847,-56.82651c18.01406,-21.04202 47.0419,-44.3262 90.63993,-70.16136l13.82968,-8.19651l-298.82352,0z"/>
            <path fill="#2d8cf0" stroke-width="11.203"
                  d="m388.01168,563.64056l0,8.81075l168.376,0l0,-8.81075l-168.376,0zm-24.29441,-88.86927l0,8.81006l162.22399,0l0,-8.81075l-162.22399,0.00069zm-79.49781,-88.86927l0,8.81075l167.75902,0l0,-8.81006l-167.75902,-0.00069zm6.30506,-88.86927l0,8.81006l161.9982,0l0,-8.81075l-161.9982,0.00069z"/>
        </g>
    </g>
</svg>
