<?xml version="1.0" encoding="UTF-8"?>
<svg width="24px" height="24px" viewBox="0 0 24 24" version="1.1" xmlns="http://www.w3.org/2000/svg"
>
    <title>定时器</title>
    <g id="" stroke="none" stroke-width="1" fill="none" fill-rule="evenodd">
        <g id="" transform="translate(-583.000000, -200.000000)" fill="#2D8CF0">
            <g id="编组-59" transform="translate(583.000000, 200.000000)">
                <rect id="矩形" stroke="#2D8CF0" fill-opacity="0.05" x="0.5" y="0.5" width="23" height="23"></rect>
                <path d="M15.7338867,5.33333333 C16.0465495,5.33333333 16.3011068,5.58927409 16.3011068,5.90055339 C16.3011068,6.21321615 16.045166,6.46777344 15.7338867,6.46777344 L12.9005534,6.46777344 L12.9005534,7.62988281 C15.7629395,7.91349284 18,10.3290202 18,13.2674967 C18,16.3968913 15.4627279,18.9341634 12.3333333,18.9341634 C9.2039388,18.9341634 6.66666667,16.3968913 6.66666667,13.2674967 C6.66666667,10.3290202 8.90234375,7.9148763 11.7661133,7.62988281 L11.7661133,6.46777344 L8.93277995,6.46777344 C8.62011719,6.46777344 8.3655599,6.21183268 8.3655599,5.90055339 C8.3655599,5.58789062 8.62150065,5.33333333 8.93277995,5.33333333 Z M12.3333333,8.73388672 C9.83341471,8.73388672 7.79972331,10.7675781 7.79972331,13.2674967 C7.79972331,15.7674154 9.83341471,17.8011068 12.3333333,17.8011068 C14.833252,17.8011068 16.8669434,15.7674154 16.8669434,13.2674967 C16.8669434,10.7675781 14.833252,8.73388672 12.3333333,8.73388672 Z M12.0497233,9.58333333 C12.3623861,9.58333333 12.6169434,9.83927409 12.6169434,10.1505534 L12.6169434,12.7500814 L14.8540039,14.9871419 C15.0739746,15.2071126 15.0739746,15.5681966 14.8540039,15.7881673 C14.6340332,16.008138 14.2729492,16.008138 14.0529785,15.7881673 L11.6485189,13.3837077 C11.6000977,13.3366699 11.5655111,13.2813314 11.5378418,13.2232259 C11.5336914,13.2163086 11.529541,13.2093913 11.5267741,13.202474 C11.5170898,13.1789551 11.511556,13.1540527 11.5046387,13.1305339 C11.5004883,13.1180827 11.4963379,13.107015 11.493571,13.0945638 C11.4880371,13.0613607 11.4838867,13.0267741 11.4838867,12.993571 L11.4825033,12.9838867 L11.4825033,10.1505534 C11.4825033,9.83789062 11.7370605,9.58333333 12.0497233,9.58333333 Z"
                      id="形状结合" fill-rule="nonzero"></path>
            </g>
        </g>
    </g>
</svg>
