<svg width="40" height="40" viewBox="0 0 1024 1024" xmlns="http://www.w3.org/2000/svg" version="1.1">
    <path fill="#909399"
          d="m512,0a512,512 0 1 0 512,512a512,512 0 0 0 -512,-512zm0,1004.2368a492.2368,492.2368 0 1 1 492.2368,-492.2368a492.2368,492.2368 0 0 1 -492.2368,492.2368z"/>
    <path fill="#FFFFFF"
          d="m512,512m-492.2368,0a492.2368,492.2368 0 1 0 984.4736,0a492.2368,492.2368 0 1 0 -984.4736,0z"/>
    <path fill="#909399"
          d="m512,58.9824a453.0176,453.0176 0 1 0 453.0176,453.0176a453.0176,453.0176 0 0 0 -453.0176,-453.0176zm0,888.5248a435.5072,435.5072 0 1 1 435.5072,-435.5072a435.5072,435.5072 0 0 1 -435.5072,435.5072z"/>
    <path fill="#606266"
          d="m518.2464,156.0064a362.2912,362.2912 0 1 0 362.2912,362.2912a362.1376,362.1376 0 0 0 -362.2912,-362.2912zm22.1696,679.7824l0,-65.8944a22.1184,22.1184 0 0 0 -44.288,0l0,65.8944a319.0784,319.0784 0 0 1 -295.8848,-295.8848l65.8944,0a22.1696,22.1696 0 0 0 0,-44.288l-65.3824,0a318.464,318.464 0 0 1 295.3728,-294.8096l0,65.8432a22.1184,22.1184 0 0 0 44.288,0l0,-65.8432a319.0784,319.0784 0 0 1 295.8848,295.8848l-65.8944,0a22.1184,22.1184 0 1 0 0,44.2368l65.8944,0a318.5664,318.5664 0 0 1 -295.8848,294.8608z"/>
    <path transform="rotate(25.5514 578.592 484.93)" fill="#606266"
          d="m663.448,526.1792l-72.5504,0a63.5904,63.5904 0 0 0 -35.84,-35.84l0,-109.6192a22.1696,22.1696 0 0 0 -44.288,0l0,110.08a61.8496,61.8496 0 1 0 80.2816,79.7696l72.5504,0a22.272,22.272 0 0 0 22.1184,-22.1184a22.6304,22.6304 0 0 0 -22.272,-22.272z"/>
</svg>
