<?xml version="1.0" encoding="UTF-8"?>
<svg width="32px" height="21px" viewBox="0 0 32 21" version="1.1" xmlns="http://www.w3.org/2000/svg"
>
    <title>用户任务</title>
    <g id="" stroke="none" stroke-width="1" fill="none" fill-rule="evenodd">
        <g id="" transform="translate(-579.000000, -260.000000)" fill="#19BE6B">
            <g id="编组-7" transform="translate(579.000000, 260.000000)">
                <rect id="矩形" stroke="#19BE6B" fill-opacity="0.05" x="0.5" y="0.5" width="31" height="19.2105263"
                      rx="9.60526316"></rect>
                <path d="M19.9559428,5.08900584 L18.7425446,5.08900584 L18.7425446,4.77631513 C18.7425446,4.46430626 18.4886283,4.21052632 18.1767558,4.21052632 L14.384648,4.21052632 C14.0726391,4.21052632 13.8188592,4.46444263 13.8188592,4.77631513 L13.8188592,5.08900584 L12.6055974,5.08900584 C11.6912532,5.08900584 10.9473684,5.83289063 10.9473684,6.74723481 L10.9473684,14.6888697 C10.9473684,15.6032139 11.6912532,16.3470987 12.6055974,16.3470987 L19.9559428,16.3470987 C20.8702869,16.3470987 21.6140354,15.6032139 21.6140354,14.6888697 L21.6140354,6.74723481 C21.6140354,5.83289063 20.8702869,5.08900584 19.9559428,5.08900584 Z M14.6376097,5.02927687 L17.9237941,5.02927687 L17.9237941,5.95289404 L14.6376097,5.95289404 L14.6376097,5.02927687 Z M14.9096629,11.1558602 C14.9096629,10.3998387 15.5246804,9.78482119 16.2807019,9.78482119 C17.0367234,9.78482119 17.6517409,10.3998387 17.6517409,11.1558602 C17.6517409,11.9117453 17.0367234,12.5267628 16.2807019,12.5267628 C15.5246804,12.5267628 14.9096629,11.9117453 14.9096629,11.1558602 Z M13.4239388,15.5283481 C13.7684032,14.2724033 14.9168904,13.3455133 16.2807019,13.3455133 C17.6445134,13.3455133 18.793137,14.2724033 19.1376013,15.5283481 L13.4239388,15.5283481 L13.4239388,15.5283481 Z M20.7952848,14.6890061 C20.7952848,15.1431099 20.4322745,15.511984 19.9815799,15.5258935 C19.720027,14.2917675 18.8554569,13.2791024 17.7116062,12.8098618 C18.1753921,12.4079867 18.4706278,11.8164244 18.4706278,11.1559965 C18.4706278,9.9484622 17.4883726,8.96607063 16.2807019,8.96607063 C15.0730312,8.96607063 14.090776,9.94832584 14.090776,11.1559965 C14.090776,11.8164244 14.3858753,12.4081231 14.8497976,12.8098618 C13.7060832,13.2791024 12.8413768,14.2917675 12.5799603,15.5258935 C12.1292657,15.511984 11.766119,15.1431099 11.766119,14.6890061 L11.766119,6.74723481 C11.766119,6.28440347 12.142766,5.9077564 12.6055974,5.9077564 L13.8188592,5.9077564 L13.8188592,6.20585578 C13.8188592,6.51786465 14.0727755,6.7716446 14.384648,6.7716446 L18.1766194,6.7716446 C18.4886283,6.7716446 18.7424083,6.51772829 18.7424083,6.20585578 L18.7424083,5.9077564 L19.9558064,5.9077564 C20.4186377,5.9077564 20.7951484,6.28440347 20.7951484,6.74723481 L20.7951484,14.6890061 L20.7952848,14.6890061 Z"
                      id="形状" fill-rule="nonzero"></path>
            </g>
        </g>
    </g>
</svg>
